<svg viewBox="0 0 891 400" xmlns="http://www.w3.org/2000/svg"><g><g><g><g><g><line x1="51.41600036621094" y1="376.98999977111816" x2="46.41600036621094" y2="376.98999977111816" style="visibility: inherit;" fill="rgb(0, 0, 0)" stroke="rgb(204, 204, 204)" stroke-width="1px"></line><line x1="51.41600036621094" y1="339.2909997940064" x2="46.41600036621094" y2="339.2909997940064" style="visibility: inherit;" fill="rgb(0, 0, 0)" stroke="rgb(204, 204, 204)" stroke-width="1px"></line><line x1="51.41600036621094" y1="301.59199981689454" x2="46.41600036621094" y2="301.59199981689454" style="visibility: inherit;" fill="rgb(0, 0, 0)" stroke="rgb(204, 204, 204)" stroke-width="1px"></line><line x1="51.41600036621094" y1="263.8929998397827" x2="46.41600036621094" y2="263.8929998397827" style="visibility: inherit;" fill="rgb(0, 0, 0)" stroke="rgb(204, 204, 204)" stroke-width="1px"></line><line x1="51.41600036621094" y1="226.19399986267084" x2="46.41600036621094" y2="226.19399986267084" style="visibility: inherit;" fill="rgb(0, 0, 0)" stroke="rgb(204, 204, 204)" stroke-width="1px"></line><line x1="51.41600036621094" y1="188.49499988555905" x2="46.41600036621094" y2="188.49499988555905" style="visibility: inherit;" fill="rgb(0, 0, 0)" stroke="rgb(204, 204, 204)" stroke-width="1px"></line><line x1="51.41600036621094" y1="150.79599990844724" x2="46.41600036621094" y2="150.79599990844724" style="visibility: inherit;" fill="rgb(0, 0, 0)" stroke="rgb(204, 204, 204)" stroke-width="1px"></line><line x1="51.41600036621094" y1="113.09699993133538" x2="46.41600036621094" y2="113.09699993133538" style="visibility: inherit;" fill="rgb(0, 0, 0)" stroke="rgb(204, 204, 204)" stroke-width="1px"></line><line x1="51.41600036621094" y1="75.39799995422362" x2="46.41600036621094" y2="75.39799995422362" style="visibility: inherit;" fill="rgb(0, 0, 0)" stroke="rgb(204, 204, 204)" stroke-width="1px"></line><line x1="51.41600036621094" y1="37.69899997711177" x2="46.41600036621094" y2="37.69899997711177" style="visibility: inherit;" fill="rgb(0, 0, 0)" stroke="rgb(204, 204, 204)" stroke-width="1px"></line><line x1="51.41600036621094" y1="0" x2="46.41600036621094" y2="0" style="visibility: inherit;" fill="rgb(0, 0, 0)" stroke="rgb(204, 204, 204)" stroke-width="1px"></line></g><g transform="translate(41.41600036621094, 0)"><text style="text-anchor: end; visibility: hidden; font-family: Roboto, sans-serif; font-size: 12px; font-weight: 200;" x="0" y="376.98999977111816" dx="0em" dy="0.3em" fill="rgb(255, 255, 255)" stroke="none" stroke-width="1px">0.2</text><text style="text-anchor: end; visibility: inherit; font-family: Roboto, sans-serif; font-size: 12px; font-weight: 200;" x="0" y="339.2909997940064" dx="0em" dy="0.3em" fill="rgb(255, 255, 255)" stroke="none" stroke-width="1px">0.25</text><text style="text-anchor: end; visibility: inherit; font-family: Roboto, sans-serif; font-size: 12px; font-weight: 200;" x="0" y="301.59199981689454" dx="0em" dy="0.3em" fill="rgb(255, 255, 255)" stroke="none" stroke-width="1px">0.3</text><text style="text-anchor: end; visibility: inherit; font-family: Roboto, sans-serif; font-size: 12px; font-weight: 200;" x="0" y="263.8929998397827" dx="0em" dy="0.3em" fill="rgb(255, 255, 255)" stroke="none" stroke-width="1px">0.35</text><text style="text-anchor: end; visibility: inherit; font-family: Roboto, sans-serif; font-size: 12px; font-weight: 200;" x="0" y="226.19399986267084" dx="0em" dy="0.3em" fill="rgb(255, 255, 255)" stroke="none" stroke-width="1px">0.4</text><text style="text-anchor: end; visibility: inherit; font-family: Roboto, sans-serif; font-size: 12px; font-weight: 200;" x="0" y="188.49499988555905" dx="0em" dy="0.3em" fill="rgb(255, 255, 255)" stroke="none" stroke-width="1px">0.45</text><text style="text-anchor: end; visibility: inherit; font-family: Roboto, sans-serif; font-size: 12px; font-weight: 200;" x="0" y="150.79599990844724" dx="0em" dy="0.3em" fill="rgb(255, 255, 255)" stroke="none" stroke-width="1px">0.5</text><text style="text-anchor: end; visibility: inherit; font-family: Roboto, sans-serif; font-size: 12px; font-weight: 200;" x="0" y="113.09699993133538" dx="0em" dy="0.3em" fill="rgb(255, 255, 255)" stroke="none" stroke-width="1px">0.55</text><text style="text-anchor: end; visibility: inherit; font-family: Roboto, sans-serif; font-size: 12px; font-weight: 200;" x="0" y="75.39799995422362" dx="0em" dy="0.3em" fill="rgb(255, 255, 255)" stroke="none" stroke-width="1px">0.6</text><text style="text-anchor: end; visibility: inherit; font-family: Roboto, sans-serif; font-size: 12px; font-weight: 200;" x="0" y="37.69899997711177" dx="0em" dy="0.3em" fill="rgb(255, 255, 255)" stroke="none" stroke-width="1px">0.65</text><text style="text-anchor: end; visibility: hidden; font-family: Roboto, sans-serif; font-size: 12px; font-weight: 200;" x="0" y="0" dx="0em" dy="0.3em" fill="rgb(255, 255, 255)" stroke="none" stroke-width="1px">0.7</text></g><line x1="51.41600036621094" y1="0" x2="51.41600036621094" y2="376.98999977111816" fill="rgb(0, 0, 0)" stroke="rgb(204, 204, 204)" stroke-width="1px"></line></g></g><g transform="translate(51, 0)" clip-path="url(#clip_0)"><clipPath id="clip_0"><rect width="839" height="376"></rect></clipPath><g><g><g><line x1="0" y1="0" x2="0" y2="376.98999977111816" fill="rgb(0, 0, 0)" stroke="rgb(189, 189, 189)" stroke-width="1px" opacity="0.25"></line><line x1="64.58338458721455" y1="0" x2="64.58338458721455" y2="376.98999977111816" fill="rgb(0, 0, 0)" stroke="rgb(189, 189, 189)" stroke-width="1px" opacity="0.25"></line><line x1="129.1667691744291" y1="0" x2="129.1667691744291" y2="376.98999977111816" fill="rgb(0, 0, 0)" stroke="rgb(189, 189, 189)" stroke-width="1px" opacity="0.25"></line><line x1="193.75015376164365" y1="0" x2="193.75015376164365" y2="376.98999977111816" fill="rgb(0, 0, 0)" stroke="rgb(189, 189, 189)" stroke-width="1px" opacity="0.25"></line><line x1="258.3335383488582" y1="0" x2="258.3335383488582" y2="376.98999977111816" fill="rgb(0, 0, 0)" stroke="rgb(189, 189, 189)" stroke-width="1px" opacity="0.25"></line><line x1="322.91692293607275" y1="0" x2="322.91692293607275" y2="376.98999977111816" fill="rgb(0, 0, 0)" stroke="rgb(189, 189, 189)" stroke-width="1px" opacity="0.25"></line><line x1="387.5003075232873" y1="0" x2="387.5003075232873" y2="376.98999977111816" fill="rgb(0, 0, 0)" stroke="rgb(189, 189, 189)" stroke-width="1px" opacity="0.25"></line><line x1="452.0836921105018" y1="0" x2="452.0836921105018" y2="376.98999977111816" fill="rgb(0, 0, 0)" stroke="rgb(189, 189, 189)" stroke-width="1px" opacity="0.25"></line><line x1="516.6670766977164" y1="0" x2="516.6670766977164" y2="376.98999977111816" fill="rgb(0, 0, 0)" stroke="rgb(189, 189, 189)" stroke-width="1px" opacity="0.25"></line><line x1="581.2504612849309" y1="0" x2="581.2504612849309" y2="376.98999977111816" fill="rgb(0, 0, 0)" stroke="rgb(189, 189, 189)" stroke-width="1px" opacity="0.25"></line><line x1="645.8338458721455" y1="0" x2="645.8338458721455" y2="376.98999977111816" fill="rgb(0, 0, 0)" stroke="rgb(189, 189, 189)" stroke-width="1px" opacity="0.25"></line><line x1="710.41723045936" y1="0" x2="710.41723045936" y2="376.98999977111816" fill="rgb(0, 0, 0)" stroke="rgb(189, 189, 189)" stroke-width="1px" opacity="0.25"></line><line x1="775.0006150465746" y1="0" x2="775.0006150465746" y2="376.98999977111816" fill="rgb(0, 0, 0)" stroke="rgb(189, 189, 189)" stroke-width="1px" opacity="0.25"></line><line x1="839.5839996337891" y1="0" x2="839.5839996337891" y2="376.98999977111816" fill="rgb(0, 0, 0)" stroke="rgb(189, 189, 189)" stroke-width="1px" opacity="0.25"></line></g><g><line x1="0" y1="376.98999977111816" x2="839.5839996337891" y2="376.98999977111816" fill="rgb(0, 0, 0)" stroke="rgb(189, 189, 189)" stroke-width="1px" opacity="0.25"></line><line x1="0" y1="339.2909997940064" x2="839.5839996337891" y2="339.2909997940064" fill="rgb(0, 0, 0)" stroke="rgb(189, 189, 189)" stroke-width="1px" opacity="0.25"></line><line x1="0" y1="301.59199981689454" x2="839.5839996337891" y2="301.59199981689454" fill="rgb(0, 0, 0)" stroke="rgb(189, 189, 189)" stroke-width="1px" opacity="0.25"></line><line x1="0" y1="263.8929998397827" x2="839.5839996337891" y2="263.8929998397827" fill="rgb(0, 0, 0)" stroke="rgb(189, 189, 189)" stroke-width="1px" opacity="0.25"></line><line x1="0" y1="226.19399986267084" x2="839.5839996337891" y2="226.19399986267084" fill="rgb(0, 0, 0)" stroke="rgb(189, 189, 189)" stroke-width="1px" opacity="0.25"></line><line x1="0" y1="188.49499988555905" x2="839.5839996337891" y2="188.49499988555905" fill="rgb(0, 0, 0)" stroke="rgb(189, 189, 189)" stroke-width="1px" opacity="0.25"></line><line x1="0" y1="150.79599990844724" x2="839.5839996337891" y2="150.79599990844724" fill="rgb(0, 0, 0)" stroke="rgb(189, 189, 189)" stroke-width="1px" opacity="0.25"></line><line x1="0" y1="113.09699993133538" x2="839.5839996337891" y2="113.09699993133538" fill="rgb(0, 0, 0)" stroke="rgb(189, 189, 189)" stroke-width="1px" opacity="0.25"></line><line x1="0" y1="75.39799995422362" x2="839.5839996337891" y2="75.39799995422362" fill="rgb(0, 0, 0)" stroke="rgb(189, 189, 189)" stroke-width="1px" opacity="0.25"></line><line x1="0" y1="37.69899997711177" x2="839.5839996337891" y2="37.69899997711177" fill="rgb(0, 0, 0)" stroke="rgb(189, 189, 189)" stroke-width="1px" opacity="0.25"></line><line x1="0" y1="0" x2="839.5839996337891" y2="0" fill="rgb(0, 0, 0)" stroke="rgb(189, 189, 189)" stroke-width="1px" opacity="0.25"></line></g></g></g><g><g><line x1="0" y1="527.7859996795655" x2="839.5839996337891" y2="527.7859996795655" fill="rgb(0, 0, 0)" stroke="rgb(153, 153, 153)" stroke-width="1.5px"></line></g></g><g><g><line x1="64.58338458721455" y1="0" x2="64.58338458721455" y2="376.98999977111816" fill="rgb(0, 0, 0)" stroke="rgb(153, 153, 153)" stroke-width="1.5px"></line></g></g><g><g><g><g><g><path style="fill: none;" stroke="rgb(255, 112, 67)" stroke-width="2px" d="M64.58338458721455,8.22415892554692L67.81255381657527,8.97885388684519L71.041723045936,9.997744047293839L74.27089227529673,11.439708860857879L77.50006150465745,12.606246630889954L80.72923073401819,14.016353441543226L83.95839996337891,15.185003074194125L87.18756919273964,17.16058566407604L90.41673842210037,19.46595708606355L93.64590765146109,23.188826241692322L96.87507688082182,25.55853844743985L100.10424611018254,33.14422341859669L103.33341533954328,44.456286782412306L106.56258456890399,59.13063416261068L109.79175379826474,88.46078757581787L113.02092302762544,112.42194271148621L116.25009225698618,85.50588040762493L119.4792614863469,90.73919484613042L122.70843071570764,111.06938887158587L125.93759994506836,98.36938577967712L129.1667691744291,110.89835568403457L132.3959384037898,119.80974875568775L135.62510763315055,113.49362007073562L138.85427686251126,102.66243322958374L142.083446091872,111.79667607165334L145.31261532123273,132.18569995019644L148.54178455059346,150.7634234886164L151.77095377995417,125.72470725174549L155.0001230093149,147.98491634275686L158.22929223867564,158.629834817153L161.45846146803638,165.06048474790958L164.68763069739708,183.1528475148381L167.91679992675782,167.30386390228082L171.14596915611853,151.0173610219851L174.3751383854793,177.05468535166145L177.60430761484,205.07942146964524L180.83347684420073,217.77423345556062L184.06264607356144,207.6052862556106L187.29181530292217,199.19965495248417L190.5209845322829,206.5167061716515L193.75015376164365,209.7684089478138L196.97932299100435,219.65890811938738L200.2084922203651,232.0335349430557L203.43766144972582,228.4681143215225L206.66683067908656,245.39011357710396L209.89599990844727,239.04262137372277L213.12516913780797,244.48553972794556L216.3543383671687,267.51998104809024L219.58350759652947,271.862011934102L222.81267682589018,260.68649429290605L226.0418460552509,246.24472136802103L229.2710152846116,258.182016068027L232.50018451397236,266.4564956986715L235.7293537433331,256.40177347796L238.9585229726938,269.3278527867721L242.1876922020545,276.90221853589287L245.41686143141527,279.1948859696613L248.646030660776,283.0951117097236L251.8751998901367,278.8650142154063L255.10436911949742,287.40205441976866L258.3335383488582,285.8660606819146L261.5627075782189,291.40976081961156L264.7918768075796,283.8263718719307L268.02104603694033,290.7118167580886L271.2502152663011,301.3258979589665L274.4793844956618,285.52466298571574L277.7085537250225,302.16163808445555L280.9377229543832,300.4979954015176L284.166892183744,289.30174702352656L287.39606141310475,295.71671609502846L290.62523064246545,295.9321782141641L293.85439987182616,279.3034062609526L297.0835691011869,292.7125156138706L300.31273833054763,311.05136323984556L303.54190755990834,297.01528110573526L306.77107678926905,314.46799845716106L310.0002460186298,318.88744996465425L313.2294152479905,308.24721378774825L316.4585844773513,299.9474833042719L319.687753706712,299.8448535476114L322.91692293607275,293.04837999367317L326.14609216543346,308.27471494219753L329.37526139479417,319.8747229005349L332.6044306241549,300.86937857616834L335.83359985351564,307.8289550922241L339.06276908287634,320.5191050091299L342.29193831223705,312.4825387588296L345.5211075415978,311.00048472115265L348.7502767709586,314.2236238759352L351.9794460003193,312.39436106099845L355.20861522968,308.3163175058688L358.4377844590407,309.9531098838959L361.66695368840146,305.1034540723113L364.89612291776217,291.50196006990586L368.1252921471229,301.62015818890086L371.3544613764836,305.9773799287509L374.58363060584435,284.3466133603628L377.8127998352051,296.08094201287713L381.0419690645658,276.3762800348326L384.2711382939265,275.48940016996244L387.5003075232873,272.56558159153883L390.729476752648,278.80729437329825L393.9586459820087,277.3548030921861L397.1878152113694,272.62628986058L400.4169844407302,287.8501342355182L403.6461536700909,276.6827896846717L406.87532289945165,291.89205767593114L410.10449212881235,287.0356198221875L413.3336613581731,305.22421578610374L416.5628305875338,297.96323337824373L419.79199981689453,287.24423481468506L423.02116904625524,292.6280809074422L426.25033827561595,303.4793802429063L429.47950750497665,278.4984875837079L432.7086767343374,289.6356495409823L435.9378459636982,299.72643891579787L439.16701519305894,294.6786606627289L442.39618442241965,308.6819925158449L445.62535365178036,316.54179993736034L448.85452288114107,278.5459077338243L452.0836921105018,277.7343384828347L455.3128613398625,305.93272857795694L458.5420305692232,308.64524918731087L461.771199798584,307.42829323976406L465.0003690279447,319.91797780630105L468.2295382573055,317.782468439841L471.4587074866662,316.32043824860835L474.6878767160269,306.09219986848314L477.9170459453876,311.5654196351017L481.1462151747483,326.64284542230564L484.375384404109,314.44057818356777L487.60455363346983,309.6820786762287L490.83372286283054,302.7614356142986L494.06289209219125,302.8100264584451L497.292061321552,319.72696053729965L500.5212305509127,306.83266187582626L503.7503997802734,306.5557551859909L506.97956900963413,326.0145676064648L510.20873823899484,325.39242746761965L513.4379074683557,314.29307221381896L516.6670766977164,305.56098226545447L519.8962459270771,312.7798144318889L523.1254151564378,307.8734878659381L526.3545843857985,306.3751020071151L529.5837536151593,314.9604208557549L532.8129228445199,329.4291201428471L536.0420920738807,292.64920277015676L539.2712613032414,303.0646761961923L542.5004305326022,315.20322458720824L545.729599761963,292.8312014534286L548.9587689913236,269.83164357577425L552.1879382206844,287.2094545346177L555.417107450045,311.72778610277976L558.6462766794058,316.1886899213639L561.8754459087664,310.8836182990558L565.1046151381273,318.94400395015043L568.333784367488,313.58912040635124L571.5629535968487,317.12979929167454L574.7921228262095,321.02830406871L578.0212920555701,304.1204063660674L581.2504612849309,311.73147263720904L584.4796305142916,323.9168210916338L587.7087997436523,325.2401209703552L590.9379689730131,328.08295685647477L594.1671382023738,339.717036449493L597.3963074317345,337.4497152212363L600.6254766610953,336.87423894956504L603.854645890456,303.78034319510573L607.0838151198167,296.3419508356751L610.3129843491774,295.8559705194737L613.5421535785381,328.43880383896766L616.771322807899,315.71064328281034L620.0004920372596,324.0781224901462L623.2296612666204,323.26847866542425L626.458830495981,331.8670254744546L629.6879997253418,323.08596774799514L632.9171689547026,315.1319189599355L636.1463381840632,329.0612425973266L639.375507413424,328.22610668328025L642.6046766427846,319.3898087266535L645.8338458721455,309.6273588843331L649.0630151015062,317.15330433412714L652.2921843308669,324.4479421959118L655.5213535602276,328.59708224034364L658.7505227895883,314.4452819951371L661.9796920189491,315.5894631162627L665.2088612483097,327.017978935212L668.4380304776705,315.8871198257854L671.6671997070313,301.23817169532896L674.896368936392,304.9326309912194L678.1255381657527,285.382444435353L681.3547073951135,302.2839060701987L684.5838766244741,311.41819203947784L687.8130458538349,322.48615221895614L691.0422150831956,305.2467023391637L694.2713843125563,295.16355370739274L697.5005535419172,319.36358452374986L700.7297227712778,318.2374723426215L703.9588920006386,325.1703930777833L707.1880612299992,325.2861287614631L710.41723045936,319.07070175393216L713.6463996887206,321.07821706749894L716.8755689180814,316.8146552428856L720.1047381474422,330.6352902504239L723.3339073768029,331.7293514471385L726.5630766061637,330.39317999896724L729.7922458355243,327.1283666941667L733.0214150648851,327.89116900461494L736.2505842942458,330.7204705292813L739.4797535236065,316.7687524530806L742.7089227529672,322.54868833746957L745.9380919823279,325.6678290649109L749.1672612116887,317.7571500401459L752.3964304410495,318.60345220326656L755.6255996704102,318.9249542580212L758.8547688997709,333.4642918393044L762.0839381291316,342.5675939531352L765.3131073584923,337.6553448698468L768.542276587853,333.9631840442311L771.7714458172137,334.0096636037782L775.0006150465746,334.28483310243314L778.2297842759352,341.0323781308978L781.458953505296,327.43222542577297L784.6881227346568,333.2945970665177L787.9172919640174,345.30272232776156" fill="none"></path></g></g></g></g><g opacity="0.2"><g><g><g><path style="fill: none;" stroke="rgb(255, 112, 67)" stroke-width="2px" d="M64.58338458721455,8.22415892554692L67.81255381657527,9.431670863624152L71.041723045936,10.975878601324542L74.27089227529673,13.135459481609008L77.50006150465745,14.129278343443833L80.72923073401819,15.967038799128535L83.95839996337891,16.85619074727912L87.18756919273964,20.041004045716694L90.41673842210037,22.86593213815023L93.64590765146109,28.716853059738344L96.87507688082182,29.091613640765775L100.10424611018254,44.48146991270265L103.33341533954328,61.38744597856463L106.56258456890399,81.1134066587557L109.79175379826474,132.42154120130306L113.02092302762544,148.34677615195199L116.25009225698618,45.143176927338445L119.4792614863469,98.5878377659195L122.70843071570764,141.56158280933266L125.93759994506836,79.32054197240141L129.1667691744291,129.69112342208462L132.3959384037898,133.17654512998286L135.62510763315055,104.01955174425017L138.85427686251126,86.4157812735899L142.083446091872,125.49797541246913L145.31261532123273,162.76914881813775L148.54178455059346,178.62996126094367L151.77095377995417,88.16667133676638L155.0001230093149,181.37520947447547L158.22929223867564,174.59720664546262L161.45846146803638,174.706457511571L164.68763069739708,210.29138806545632L167.91679992675782,143.53039037549536L171.14596915611853,126.58760786811023L174.3751383854793,216.11067072717594L177.60430761484,247.11652492397332L180.83347684420073,236.81645123802423L184.06264607356144,192.35186555008374L187.29181530292217,186.5912080446119L190.5209845322829,217.49228297594993L193.75015376164365,214.64596310553713L196.97932299100435,234.4946568648487L200.2084922203651,250.59547516962573L203.43766144972582,223.11998339076706L206.66683067908656,270.7731124560785L209.89599990844727,229.52138306964082L213.12516913780797,252.64991725877053L216.3543383671687,302.07164302701443L219.58350759652947,278.3750582629732L222.81267682589018,243.9232178313381L226.0418460552509,224.5820619808685L229.2710152846116,276.0879581179489L232.50018451397236,278.86821514460223L235.7293537433331,241.3196901469189L238.9585229726938,288.71697174997L242.1876922020545,288.26376715956695L245.41686143141527,282.6338871203128L248.646030660776,288.94545031981573L251.8751998901367,272.51986797393124L255.10436911949742,300.2076147263111L258.3335383488582,283.5620700751336L261.5627075782189,299.7253110261568L264.7918768075796,272.4512884504095L268.02104603694033,301.03998408732554L271.2502152663011,317.2470197602832L274.4793844956618,261.8228105258397L277.7085537250225,327.1171007325651L280.9377229543832,298.00253137711064L284.166892183744,272.50737445654L287.39606141310475,305.3391697022815L290.62523064246545,296.2553713928675L293.85439987182616,254.3602483311355L297.0835691011869,312.8261796432477L300.31273833054763,338.55963467880787L303.54190755990834,275.96115790456975L306.77107678926905,340.6470744842999L310.0002460186298,325.51662722589407L313.2294152479905,292.2868595223893L316.4585844773513,287.49788757905736L319.687753706712,299.69090891262084L322.91692293607275,282.85366966276575L326.14609216543346,331.1142173649841L329.37526139479417,337.27473483804096L332.6044306241549,272.3613620896185L335.83359985351564,318.26831986630776L339.06276908287634,339.5543298844885L342.29193831223705,300.42768938337923L345.5211075415978,308.77740366463723L348.7502767709586,319.0583326081091L351.9794460003193,309.65046683859333L355.20861522968,302.19925217317433L358.4377844590407,312.40829845093646L361.66695368840146,297.82897035493437L364.89612291776217,271.09971906629755L368.1252921471229,316.7974553673934L371.3544613764836,312.5132125385259L374.58363060584435,251.90046350778073L377.8127998352051,313.6824349916487L381.0419690645658,246.81928706776569L384.2711382939265,274.1590803726572L387.5003075232873,268.17985372390353L390.729476752648,288.1698635459374L393.9586459820087,275.17606617051786L397.1878152113694,265.5335200131708L400.4169844407302,310.6859007979256L403.6461536700909,259.93177285840204L406.87532289945165,314.70595966282025L410.10449212881235,279.75096304157205L413.3336613581731,332.50710973197823L416.5628305875338,287.0717597664537L419.79199981689453,271.165736969347L423.02116904625524,300.7038500465779L426.25033827561595,319.75632924610255L429.47950750497665,241.0271485949105L432.7086767343374,306.3413924768939L435.9378459636982,314.8626229780213L439.16701519305894,287.1069932831254L442.39618442241965,329.686990295519L445.62535365178036,328.33151106963356L448.85452288114107,221.55206942852033L452.0836921105018,276.5169846063502L455.3128613398625,348.23031372064025L458.5420305692232,312.71403010134173L461.771199798584,305.6028593184439L465.0003690279447,338.6525046561065L468.2295382573055,314.5792043901511L471.4587074866662,314.1273929617593L474.6878767160269,290.7498422982954L477.9170459453876,319.7752492850296L481.1462151747483,349.25898410311146L484.375384404109,296.1371773254611L487.60455363346983,302.54432941522003L490.83372286283054,292.3804710214036L494.06289209219125,302.8829127246649L497.292061321552,345.1023616555814L500.5212305509127,287.49121388361635L503.7503997802734,306.1403951512379L506.97956900963413,355.2027862371757L510.20873823899484,324.459217259352L513.4379074683557,297.64403933311786L516.6670766977164,292.46284734290776L519.8962459270771,323.6080626815406L523.1254151564378,300.51399801701194L526.3545843857985,304.1275232188805L529.5837536151593,327.83839912871457L532.8129228445199,351.13216907348556L536.0420920738807,237.47932671112108L539.2712613032414,318.68788633524554L542.5004305326022,333.41104717373213L545.729599761963,259.27316675275904L548.9587689913236,235.33230675929292L552.1879382206844,313.2761709728829L555.417107450045,348.50528345502283L558.6462766794058,322.8800456492401L561.8754459087664,302.9260108655937L565.1046151381273,331.0345824267924L568.333784367488,305.55679509065243L571.5629535968487,322.44081761965964L574.7921228262095,326.8760612342631L578.0212920555701,278.7585598121035L581.2504612849309,323.14807204392145L584.4796305142916,342.194843773271L587.7087997436523,327.22507078843734L590.9379689730131,332.34721068565426L594.1671382023738,357.1681558390203L597.3963074317345,334.0487333788513L600.6254766610953,336.0110245420581L603.854645890456,254.13949956341673L607.0838151198167,285.1843622965293L610.3129843491774,295.12700004517154L613.5421535785381,377.3130538182086L616.771322807899,296.6184024485744L620.0004920372596,336.62934130114985L623.2296612666204,322.05401292834136L626.458830495981,344.764845688L629.6879997253418,309.91438115830596L632.9171689547026,303.20084577784615L636.1463381840632,349.95522805341335L639.375507413424,326.97340281221074L642.6046766427846,306.13536179171336L645.8338458721455,294.9836841208525L649.0630151015062,328.44222250881825L652.2921843308669,335.38989898858887L655.5213535602276,334.82079230699145L658.7505227895883,293.2175816273273L661.9796920189491,317.30573479795106L665.2088612483097,344.16075266363606L668.4380304776705,299.1908311616456L671.6671997070313,279.26474949964427L674.896368936392,310.4743199350551L678.1255381657527,256.0571646015534L681.3547073951135,327.6360985224674L684.5838766244741,325.1196209933966L687.8130458538349,339.0880924881737L691.0422150831956,279.3875275194748L694.2713843125563,280.03883075973624L697.5005535419172,355.66363074828564L700.7297227712778,316.5483040709291L703.9588920006386,335.5697741805258L707.1880612299992,325.45973228698284L710.41723045936,309.74756124263575L713.6463996887206,324.0894900378491L716.8755689180814,310.4193125059656L720.1047381474422,351.3662427617313L723.3339073768029,333.37044324221057L726.5630766061637,328.38892282671026L729.7922458355243,322.23114673696585L733.0214150648851,329.0353724702873L736.2505842942458,334.9644228162808L739.4797535236065,295.8411753387796L742.7089227529672,331.21859216405306L745.9380919823279,330.3465401560729L749.1672612116887,305.89113150299846L752.3964304410495,319.8729054479475L755.6255996704102,319.4072073401532L758.8547688997709,355.2732982112292L762.0839381291316,356.2225471238814L765.3131073584923,330.28697124491424L768.542276587853,328.4249428058077L771.7714458172137,334.0793829430989L775.0006150465746,334.6975873504155L778.2297842759352,351.15369567359494L781.458953505296,307.0319963680857L784.6881227346568,342.0881545276349L787.9172919640174,363.3149102196273" fill="none"></path></g></g></g></g></g></g><g transform="translate(51, 376)" clip-path="url(#clip_1)"><clipPath id="clip_1"><rect width="839" height="23"></rect></clipPath><g><g><line x1="0" y1="0" x2="0" y2="5" style="visibility: inherit;" fill="rgb(0, 0, 0)" stroke="rgb(204, 204, 204)" stroke-width="1px"></line><line x1="64.58338458721455" y1="0" x2="64.58338458721455" y2="5" style="visibility: inherit;" fill="rgb(0, 0, 0)" stroke="rgb(204, 204, 204)" stroke-width="1px"></line><line x1="129.1667691744291" y1="0" x2="129.1667691744291" y2="5" style="visibility: inherit;" fill="rgb(0, 0, 0)" stroke="rgb(204, 204, 204)" stroke-width="1px"></line><line x1="193.75015376164365" y1="0" x2="193.75015376164365" y2="5" style="visibility: inherit;" fill="rgb(0, 0, 0)" stroke="rgb(204, 204, 204)" stroke-width="1px"></line><line x1="258.3335383488582" y1="0" x2="258.3335383488582" y2="5" style="visibility: inherit;" fill="rgb(0, 0, 0)" stroke="rgb(204, 204, 204)" stroke-width="1px"></line><line x1="322.91692293607275" y1="0" x2="322.91692293607275" y2="5" style="visibility: inherit;" fill="rgb(0, 0, 0)" stroke="rgb(204, 204, 204)" stroke-width="1px"></line><line x1="387.5003075232873" y1="0" x2="387.5003075232873" y2="5" style="visibility: inherit;" fill="rgb(0, 0, 0)" stroke="rgb(204, 204, 204)" stroke-width="1px"></line><line x1="452.0836921105018" y1="0" x2="452.0836921105018" y2="5" style="visibility: inherit;" fill="rgb(0, 0, 0)" stroke="rgb(204, 204, 204)" stroke-width="1px"></line><line x1="516.6670766977164" y1="0" x2="516.6670766977164" y2="5" style="visibility: inherit;" fill="rgb(0, 0, 0)" stroke="rgb(204, 204, 204)" stroke-width="1px"></line><line x1="581.2504612849309" y1="0" x2="581.2504612849309" y2="5" style="visibility: inherit;" fill="rgb(0, 0, 0)" stroke="rgb(204, 204, 204)" stroke-width="1px"></line><line x1="645.8338458721455" y1="0" x2="645.8338458721455" y2="5" style="visibility: inherit;" fill="rgb(0, 0, 0)" stroke="rgb(204, 204, 204)" stroke-width="1px"></line><line x1="710.41723045936" y1="0" x2="710.41723045936" y2="5" style="visibility: inherit;" fill="rgb(0, 0, 0)" stroke="rgb(204, 204, 204)" stroke-width="1px"></line><line x1="775.0006150465746" y1="0" x2="775.0006150465746" y2="5" style="visibility: inherit;" fill="rgb(0, 0, 0)" stroke="rgb(204, 204, 204)" stroke-width="1px"></line><line x1="839.5839996337891" y1="0" x2="839.5839996337891" y2="5" style="visibility: inherit;" fill="rgb(0, 0, 0)" stroke="rgb(204, 204, 204)" stroke-width="1px"></line></g><g transform="translate(0, 8)"><text style="text-anchor: middle; visibility: hidden; font-family: Roboto, sans-serif; font-size: 12px; font-weight: 200;" x="0" y="0" dx="0em" dy="0.95em" fill="rgb(255, 255, 255)" stroke="none" stroke-width="1px">-20</text><text style="text-anchor: middle; visibility: inherit; font-family: Roboto, sans-serif; font-size: 12px; font-weight: 200;" x="64.58338458721455" y="0" dx="0em" dy="0.95em" fill="rgb(255, 255, 255)" stroke="none" stroke-width="1px">0</text><text style="text-anchor: middle; visibility: inherit; font-family: Roboto, sans-serif; font-size: 12px; font-weight: 200;" x="129.1667691744291" y="0" dx="0em" dy="0.95em" fill="rgb(255, 255, 255)" stroke="none" stroke-width="1px">20</text><text style="text-anchor: middle; visibility: inherit; font-family: Roboto, sans-serif; font-size: 12px; font-weight: 200;" x="193.75015376164365" y="0" dx="0em" dy="0.95em" fill="rgb(255, 255, 255)" stroke="none" stroke-width="1px">40</text><text style="text-anchor: middle; visibility: inherit; font-family: Roboto, sans-serif; font-size: 12px; font-weight: 200;" x="258.3335383488582" y="0" dx="0em" dy="0.95em" fill="rgb(255, 255, 255)" stroke="none" stroke-width="1px">60</text><text style="text-anchor: middle; visibility: inherit; font-family: Roboto, sans-serif; font-size: 12px; font-weight: 200;" x="322.91692293607275" y="0" dx="0em" dy="0.95em" fill="rgb(255, 255, 255)" stroke="none" stroke-width="1px">80</text><text style="text-anchor: middle; visibility: inherit; font-family: Roboto, sans-serif; font-size: 12px; font-weight: 200;" x="387.5003075232873" y="0" dx="0em" dy="0.95em" fill="rgb(255, 255, 255)" stroke="none" stroke-width="1px">100</text><text style="text-anchor: middle; visibility: inherit; font-family: Roboto, sans-serif; font-size: 12px; font-weight: 200;" x="452.0836921105018" y="0" dx="0em" dy="0.95em" fill="rgb(255, 255, 255)" stroke="none" stroke-width="1px">120</text><text style="text-anchor: middle; visibility: inherit; font-family: Roboto, sans-serif; font-size: 12px; font-weight: 200;" x="516.6670766977164" y="0" dx="0em" dy="0.95em" fill="rgb(255, 255, 255)" stroke="none" stroke-width="1px">140</text><text style="text-anchor: middle; visibility: inherit; font-family: Roboto, sans-serif; font-size: 12px; font-weight: 200;" x="581.2504612849309" y="0" dx="0em" dy="0.95em" fill="rgb(255, 255, 255)" stroke="none" stroke-width="1px">160</text><text style="text-anchor: middle; visibility: inherit; font-family: Roboto, sans-serif; font-size: 12px; font-weight: 200;" x="645.8338458721455" y="0" dx="0em" dy="0.95em" fill="rgb(255, 255, 255)" stroke="none" stroke-width="1px">180</text><text style="text-anchor: middle; visibility: inherit; font-family: Roboto, sans-serif; font-size: 12px; font-weight: 200;" x="710.41723045936" y="0" dx="0em" dy="0.95em" fill="rgb(255, 255, 255)" stroke="none" stroke-width="1px">200</text><text style="text-anchor: middle; visibility: inherit; font-family: Roboto, sans-serif; font-size: 12px; font-weight: 200;" x="775.0006150465746" y="0" dx="0em" dy="0.95em" fill="rgb(255, 255, 255)" stroke="none" stroke-width="1px">220</text><text style="text-anchor: middle; visibility: hidden; font-family: Roboto, sans-serif; font-size: 12px; font-weight: 200;" x="839.5839996337891" y="0" dx="0em" dy="0.95em" fill="rgb(255, 255, 255)" stroke="none" stroke-width="1px">240</text></g><line x1="0" y1="0" x2="839.5839996337891" y2="0" fill="rgb(0, 0, 0)" stroke="rgb(204, 204, 204)" stroke-width="1px"></line></g></g></g></g></svg>