<svg viewBox="0 0 330 200" xmlns="http://www.w3.org/2000/svg"><g><g><g><g><g><line x1="51.53200149536133" y1="176.89999961853027" x2="46.53200149536133" y2="176.89999961853027" style="visibility: inherit;" fill="rgb(0, 0, 0)" stroke="rgb(204, 204, 204)" stroke-width="1px"></line><line x1="51.53200149536133" y1="154.787499666214" x2="46.53200149536133" y2="154.787499666214" style="visibility: inherit;" fill="rgb(0, 0, 0)" stroke="rgb(204, 204, 204)" stroke-width="1px"></line><line x1="51.53200149536133" y1="132.6749997138977" x2="46.53200149536133" y2="132.6749997138977" style="visibility: inherit;" fill="rgb(0, 0, 0)" stroke="rgb(204, 204, 204)" stroke-width="1px"></line><line x1="51.53200149536133" y1="110.56249976158142" x2="46.53200149536133" y2="110.56249976158142" style="visibility: inherit;" fill="rgb(0, 0, 0)" stroke="rgb(204, 204, 204)" stroke-width="1px"></line><line x1="51.53200149536133" y1="88.44999980926514" x2="46.53200149536133" y2="88.44999980926514" style="visibility: inherit;" fill="rgb(0, 0, 0)" stroke="rgb(204, 204, 204)" stroke-width="1px"></line><line x1="51.53200149536133" y1="66.33749985694885" x2="46.53200149536133" y2="66.33749985694885" style="visibility: inherit;" fill="rgb(0, 0, 0)" stroke="rgb(204, 204, 204)" stroke-width="1px"></line><line x1="51.53200149536133" y1="44.22499990463255" x2="46.53200149536133" y2="44.22499990463255" style="visibility: inherit;" fill="rgb(0, 0, 0)" stroke="rgb(204, 204, 204)" stroke-width="1px"></line><line x1="51.53200149536133" y1="22.112499952316305" x2="46.53200149536133" y2="22.112499952316305" style="visibility: inherit;" fill="rgb(0, 0, 0)" stroke="rgb(204, 204, 204)" stroke-width="1px"></line><line x1="51.53200149536133" y1="0" x2="46.53200149536133" y2="0" style="visibility: inherit;" fill="rgb(0, 0, 0)" stroke="rgb(204, 204, 204)" stroke-width="1px"></line></g><g transform="translate(41.53200149536133, 0)"><text style="text-anchor: end; visibility: hidden; font-family: Roboto, sans-serif; font-size: 12px; font-weight: 200;" x="0" y="176.89999961853027" dx="0em" dy="0.3em" fill="rgb(255, 255, 255)" stroke="none" stroke-width="1px">0.25</text><text style="text-anchor: end; visibility: inherit; font-family: Roboto, sans-serif; font-size: 12px; font-weight: 200;" x="0" y="154.787499666214" dx="0em" dy="0.3em" fill="rgb(255, 255, 255)" stroke="none" stroke-width="1px">0.3</text><text style="text-anchor: end; visibility: hidden; font-family: Roboto, sans-serif; font-size: 12px; font-weight: 200;" x="0" y="132.6749997138977" dx="0em" dy="0.3em" fill="rgb(255, 255, 255)" stroke="none" stroke-width="1px">0.35</text><text style="text-anchor: end; visibility: inherit; font-family: Roboto, sans-serif; font-size: 12px; font-weight: 200;" x="0" y="110.56249976158142" dx="0em" dy="0.3em" fill="rgb(255, 255, 255)" stroke="none" stroke-width="1px">0.4</text><text style="text-anchor: end; visibility: hidden; font-family: Roboto, sans-serif; font-size: 12px; font-weight: 200;" x="0" y="88.44999980926514" dx="0em" dy="0.3em" fill="rgb(255, 255, 255)" stroke="none" stroke-width="1px">0.45</text><text style="text-anchor: end; visibility: inherit; font-family: Roboto, sans-serif; font-size: 12px; font-weight: 200;" x="0" y="66.33749985694885" dx="0em" dy="0.3em" fill="rgb(255, 255, 255)" stroke="none" stroke-width="1px">0.5</text><text style="text-anchor: end; visibility: hidden; font-family: Roboto, sans-serif; font-size: 12px; font-weight: 200;" x="0" y="44.22499990463255" dx="0em" dy="0.3em" fill="rgb(255, 255, 255)" stroke="none" stroke-width="1px">0.55</text><text style="text-anchor: end; visibility: inherit; font-family: Roboto, sans-serif; font-size: 12px; font-weight: 200;" x="0" y="22.112499952316305" dx="0em" dy="0.3em" fill="rgb(255, 255, 255)" stroke="none" stroke-width="1px">0.6</text><text style="text-anchor: end; visibility: hidden; font-family: Roboto, sans-serif; font-size: 12px; font-weight: 200;" x="0" y="0" dx="0em" dy="0.3em" fill="rgb(255, 255, 255)" stroke="none" stroke-width="1px">0.65</text></g><line x1="51.53200149536133" y1="0" x2="51.53200149536133" y2="176.89999961853027" fill="rgb(0, 0, 0)" stroke="rgb(204, 204, 204)" stroke-width="1px"></line></g></g><g transform="translate(51, 0)" clip-path="url(#clip_0)"><clipPath id="clip_0"><rect width="278" height="176"></rect></clipPath><g><g><g><line x1="0" y1="0" x2="0" y2="176.89999961853027" fill="rgb(0, 0, 0)" stroke="rgb(189, 189, 189)" stroke-width="1px" opacity="0.25"></line><line x1="21.420615269587593" y1="0" x2="21.420615269587593" y2="176.89999961853027" fill="rgb(0, 0, 0)" stroke="rgb(189, 189, 189)" stroke-width="1px" opacity="0.25"></line><line x1="42.841230539175186" y1="0" x2="42.841230539175186" y2="176.89999961853027" fill="rgb(0, 0, 0)" stroke="rgb(189, 189, 189)" stroke-width="1px" opacity="0.25"></line><line x1="64.26184580876277" y1="0" x2="64.26184580876277" y2="176.89999961853027" fill="rgb(0, 0, 0)" stroke="rgb(189, 189, 189)" stroke-width="1px" opacity="0.25"></line><line x1="85.68246107835037" y1="0" x2="85.68246107835037" y2="176.89999961853027" fill="rgb(0, 0, 0)" stroke="rgb(189, 189, 189)" stroke-width="1px" opacity="0.25"></line><line x1="107.10307634793796" y1="0" x2="107.10307634793796" y2="176.89999961853027" fill="rgb(0, 0, 0)" stroke="rgb(189, 189, 189)" stroke-width="1px" opacity="0.25"></line><line x1="128.52369161752554" y1="0" x2="128.52369161752554" y2="176.89999961853027" fill="rgb(0, 0, 0)" stroke="rgb(189, 189, 189)" stroke-width="1px" opacity="0.25"></line><line x1="149.94430688711313" y1="0" x2="149.94430688711313" y2="176.89999961853027" fill="rgb(0, 0, 0)" stroke="rgb(189, 189, 189)" stroke-width="1px" opacity="0.25"></line><line x1="171.36492215670074" y1="0" x2="171.36492215670074" y2="176.89999961853027" fill="rgb(0, 0, 0)" stroke="rgb(189, 189, 189)" stroke-width="1px" opacity="0.25"></line><line x1="192.7855374262883" y1="0" x2="192.7855374262883" y2="176.89999961853027" fill="rgb(0, 0, 0)" stroke="rgb(189, 189, 189)" stroke-width="1px" opacity="0.25"></line><line x1="214.20615269587591" y1="0" x2="214.20615269587591" y2="176.89999961853027" fill="rgb(0, 0, 0)" stroke="rgb(189, 189, 189)" stroke-width="1px" opacity="0.25"></line><line x1="235.6267679654635" y1="0" x2="235.6267679654635" y2="176.89999961853027" fill="rgb(0, 0, 0)" stroke="rgb(189, 189, 189)" stroke-width="1px" opacity="0.25"></line><line x1="257.0473832350511" y1="0" x2="257.0473832350511" y2="176.89999961853027" fill="rgb(0, 0, 0)" stroke="rgb(189, 189, 189)" stroke-width="1px" opacity="0.25"></line><line x1="278.4679985046387" y1="0" x2="278.4679985046387" y2="176.89999961853027" fill="rgb(0, 0, 0)" stroke="rgb(189, 189, 189)" stroke-width="1px" opacity="0.25"></line></g><g><line x1="0" y1="176.89999961853027" x2="278.4679985046387" y2="176.89999961853027" fill="rgb(0, 0, 0)" stroke="rgb(189, 189, 189)" stroke-width="1px" opacity="0.25"></line><line x1="0" y1="154.787499666214" x2="278.4679985046387" y2="154.787499666214" fill="rgb(0, 0, 0)" stroke="rgb(189, 189, 189)" stroke-width="1px" opacity="0.25"></line><line x1="0" y1="132.6749997138977" x2="278.4679985046387" y2="132.6749997138977" fill="rgb(0, 0, 0)" stroke="rgb(189, 189, 189)" stroke-width="1px" opacity="0.25"></line><line x1="0" y1="110.56249976158142" x2="278.4679985046387" y2="110.56249976158142" fill="rgb(0, 0, 0)" stroke="rgb(189, 189, 189)" stroke-width="1px" opacity="0.25"></line><line x1="0" y1="88.44999980926514" x2="278.4679985046387" y2="88.44999980926514" fill="rgb(0, 0, 0)" stroke="rgb(189, 189, 189)" stroke-width="1px" opacity="0.25"></line><line x1="0" y1="66.33749985694885" x2="278.4679985046387" y2="66.33749985694885" fill="rgb(0, 0, 0)" stroke="rgb(189, 189, 189)" stroke-width="1px" opacity="0.25"></line><line x1="0" y1="44.22499990463255" x2="278.4679985046387" y2="44.22499990463255" fill="rgb(0, 0, 0)" stroke="rgb(189, 189, 189)" stroke-width="1px" opacity="0.25"></line><line x1="0" y1="22.112499952316305" x2="278.4679985046387" y2="22.112499952316305" fill="rgb(0, 0, 0)" stroke="rgb(189, 189, 189)" stroke-width="1px" opacity="0.25"></line><line x1="0" y1="0" x2="278.4679985046387" y2="0" fill="rgb(0, 0, 0)" stroke="rgb(189, 189, 189)" stroke-width="1px" opacity="0.25"></line></g></g></g><g><g><line x1="0" y1="287.4624993801117" x2="278.4679985046387" y2="287.4624993801117" fill="rgb(0, 0, 0)" stroke="rgb(153, 153, 153)" stroke-width="1.5px"></line></g></g><g><g><line x1="21.420615269587593" y1="0" x2="21.420615269587593" y2="176.89999961853027" fill="rgb(0, 0, 0)" stroke="rgb(153, 153, 153)" stroke-width="1.5px"></line></g></g><g><g><g><g><g><path style="fill: none;" stroke="rgb(255, 112, 67)" stroke-width="2px" d="M32.130922904381386,-4.861001501489267L33.201953667860764,9.253507970547588L34.27298443134015,-2.314509995223763L35.34401519481952,11.741350840680385L36.415045958298904,26.932731866167654L37.48607672177828,28.432654110407523L38.55710748525767,28.65816219542322L39.62813824873704,29.191923461859982L40.69916901221642,45.79630716467966L41.7701997756958,33.89899305483249L42.841230539175186,35.952156556747134L43.91226130265456,35.83090853688608L44.98329206613394,48.39979053875069L46.05432282961332,49.302712496511866L47.125353593092704,49.181018747007684L48.196384356572075,55.02072629190875L49.26741512005146,54.1133182748228L50.33844588353084,60.354142015734524L51.409476647010216,59.18189405718448L52.480507410489594,63.890774243537535L53.55153817396898,70.1351063471361L54.62256893744836,72.04351555102001L55.693599700927734,64.97135310092234L56.76463046440711,71.57379848039297L57.8356612278865,66.63642700214564L58.906691991365875,74.20783106462503L59.97772275484525,82.32877506390987L61.04875351832463,77.2871775754484L62.119784281804016,78.57306683920996L63.190815045283394,80.6499937439222L64.26184580876277,87.27555223428868L65.33287657224216,92.39205654876953L66.40390733572153,96.8022693759492L67.47493809920091,99.69538205784171L68.5459688626803,102.7707572691853L69.61699962615967,113.34947641853381L70.68803038963904,110.78573931483466L71.75906115311842,109.37601989694076L72.83009191659781,116.22800013782941L73.90112268007718,120.13339454012376L74.97215344355656,120.15254784470726L76.04318420703594,126.28843577428468L77.11421497051533,133.87865434207725L78.1852457339947,120.44599716724319L79.25627649747408,122.88636167885988L80.32730726095346,128.86452290910032L81.39833802443285,128.2848632833941L82.46936878791222,124.559030908067L83.5403995513916,132.33512237820995L84.61143031487097,133.60090957979244L85.68246107835037,135.93285988546307L86.75349184182974,144.7211845007955L87.82452260530911,134.4344848599035L88.8955533687885,141.2008954201807L89.96658413226788,138.82651904496024L91.03761489574725,137.80828916614286L92.10864565922664,142.9457189660438L93.17967642270601,141.20714788592457L94.25070718618541,144.7345251084425L95.32173794966478,150.59581791577952L96.39276871314415,134.9128782054204L97.46379947662354,136.53635138383441L98.53483024010292,142.1972882239041L99.60586100358229,143.20603964211935L100.67689176706168,140.60710842629672L101.74792253054105,142.08654780657923L102.81895329402043,144.1246465310973L103.88998405749982,143.89521259708027L104.96101482097919,151.6831719466468L106.03204558445857,146.0452032765718L107.10307634793796,136.34412185208666L108.17410711141733,136.2137230437898L109.24513787489671,140.36564051868191L110.31616863837608,131.75243856864114L111.38719940185547,130.2403364737149L112.45823016533485,131.97767962492154L113.52926092881422,129.9899500277195L114.6002916922936,131.48408652788797L115.671322455773,131.93280596705904L116.74235321925237,137.01683349629823L117.81338398273175,147.15972994168533L118.88441474621112,139.22249683727455L119.9554455096905,133.20152753445842L121.02647627316989,138.84282892215728L122.09750703664926,140.70578709157195L123.16853780012863,140.42385959880093L124.23956856360803,150.7944635175546L125.3105993270874,149.50919881650987L126.38163009056679,131.67701845851562L127.45266085404616,129.96962432073087L128.52369161752554,137.69579215629514L129.5947223810049,139.85899146901568L130.6657531444843,143.22464695484916L131.73678390796368,141.92698167873135L132.80781467144305,137.9398119335065L133.87884543492245,142.9394878883629L134.94987619840182,140.09006867092225L136.0209069618812,148.27005843886172L137.0919377253606,154.14040475227478L138.16296848883997,149.64275898988132L139.23399925231934,151.08233510212202L140.3050300157987,155.47246395953084L141.37606077927808,155.12396398192993L142.44709154275748,147.49366553280612L143.51812230623685,153.20571867111087L144.58915306971625,158.49606174809296L145.66018383319562,147.63133242716103L146.731214596675,151.00537535514837L147.80224536015436,150.47389643915645L148.87327612363376,149.74093401406924L149.94430688711313,156.9243228141629L151.0153376505925,152.97655243587434L152.08636841407187,150.21308944693365L153.15739917755127,151.79771429418253L154.22842994103067,156.00724980884826L155.29946070451004,156.62671714682307L156.3704914679894,156.9996263044628L157.44152223146878,160.4773870470016L158.51255299494815,162.29765697253302L159.58358375842752,161.89732108553866L160.65461452190692,166.85575734964607L161.72564528538632,160.73874385487085L162.7966760488657,162.59258467263737L163.86770681234506,155.24599186669977L164.93873757582443,162.85198369880945L166.00976833930383,172.2852363648458L167.0807991027832,165.85055300031516L168.15182986626257,151.03446309879226L169.22286062974194,152.92338428179158L170.29389139322134,156.13377795155168L171.36492215670074,150.03599679520437L172.4359529201801,149.76132289438988L173.50698368365948,150.19741660909185L174.57801444713886,140.23007480220969L175.64904521061823,138.64349083527213L176.7200759740976,146.15362118316773L177.791106737577,151.69131363102133L178.8621375010564,157.24147982303975L179.93316826453577,147.34656859275077L181.00419902801514,144.26694446308937L182.0752297914945,153.31783036552758L183.1462605549739,146.96863988690538L184.21729131845328,147.80971927169634L185.28832208193265,151.44785700699924L186.35935284541202,153.82635323245373L187.43038360889142,153.30049895737642L188.50141437237082,153.31201090793002L189.5724451358502,151.597163011625L190.64347589932956,154.48652234991573L191.71450666280893,156.33299332939498L192.7855374262883,145.64713817429535L193.85656818976767,147.43065540057896L194.92759895324707,146.9876298649509L195.99862971672647,146.0515743149313L197.06966048020584,153.37392501697312L198.1406912436852,157.49895355703816L199.21172200716458,154.35710230884058L200.28275277064398,148.78197616681658L201.35378353412335,150.86819477051372L202.42481429760272,158.23802513047417L203.4958450610821,150.52938827205375L204.5668758245615,155.3215987032365L205.63790658804086,148.91298284397848L206.70893735152026,153.12257215698764L207.77996811499963,150.5097027981256L208.850998878479,156.42774056227762L209.92202964195837,150.76489974279858L210.99306040543775,155.18801893016285L212.06409116891714,147.08889993629276L213.13512193239652,152.92452978810257L214.20615269587591,150.355672219876L215.27718345935529,154.45367164987223L216.34821422283466,155.5753640688735L217.41924498631403,157.0389721400731L218.49027574979343,149.17610330035825L219.5613065132728,153.38871546756587L220.63233727675217,157.41280103030334L221.70336804023154,150.75266227798198L222.77439880371094,157.68988175015107L223.84542956719034,158.9430967373478L224.9164603306697,161.5566971686665L225.98749109414908,148.9687776557301L227.05852185762845,154.29839435447136L228.12955262110782,147.70809371533628L229.2005833845872,153.58606511884855L230.2716141480666,156.62710014762345L231.342644911546,153.5185945241876L232.41367567502536,155.76262555594354L233.48470643850473,158.29398229722767L234.5557372019841,152.60910704333475L235.6267679654635,152.75739399114147L236.69779872894287,152.33023676875388L237.76882949242224,155.92869543474026L238.8398602559016,151.1015041753382L239.910891019381,151.91145332353645L240.9819217828604,153.13658464475955L242.05295254633978,156.95079735330435L243.12398330981915,151.2817629036098L244.19501407329852,149.02802578588373L245.2660448367779,159.5596510621655L246.33707560025726,160.1317487691768L247.40810636373666,153.94203497747662L248.47913712721606,156.79478267825507L249.55016789069543,154.8755031856269L250.6211986541748,158.09781292737912L251.69222941765418,162.1077388598716L252.76326018113357,155.59961352095402L253.83429094461295,162.17370609171036L254.90532170809232,164.28139683490264L255.9763524715717,165.31872599637762L257.0473832350511,162.8550471125579L258.11841399853046,157.43436179932021L259.1894447620098,156.34172933839812L260.2604755254892,160.28966304150165L261.3315062889686,161.61501189827774" fill="none"></path></g></g></g></g><g opacity="0.2"><g><g><g><path style="fill: none;" stroke="rgb(255, 112, 67)" stroke-width="2px" d="M31.059892140902008,-4.131653648646022L32.130922904381386,20.2348029117544L33.201953667860764,41.536153474287914L34.27298443134015,-28.93294731099877L35.34401519481952,44.22059248686787L36.415045958298904,62.13888087283971L37.48607672177828,31.91585707636642L38.55710748525767,29.18259905840239L39.62813824873704,30.434469136531504L40.69916901221642,84.47677859477673L41.7701997756958,6.170237253711775L42.841230539175186,40.739048774607L43.91226130265456,35.54815450989702L44.98329206613394,77.71571539123963L46.05432282961332,51.40895378828611L47.125353593092704,48.89712106472069L48.196384356572075,68.64488322535288L49.26741512005146,51.996231661370246L50.33844588353084,74.91510717956268L51.409476647010216,56.446774638166005L52.480507410489594,74.87780756151815L53.55153817396898,84.70488618823845L54.62256893744836,76.49640010341793L55.693599700927734,48.46982296683956L56.76463046440711,86.97938526440888L57.8356612278865,55.115955898522145L58.906691991365875,91.87437361932461L59.97772275484525,101.27759414827318L61.04875351832463,65.5234719383389L62.119784281804016,81.57347122274538L63.190815045283394,85.4961521137873L64.26184580876277,102.73517886896025L65.33287657224216,104.33056129517931L66.40390733572153,107.09276276233973L67.47493809920091,106.44597684138597L68.5459688626803,109.94663166536577L69.61699962615967,138.03315179235634L70.68803038963904,104.80368652095473L71.75906115311842,106.08667476099308L72.83009191659781,132.21595344642446L73.90112268007718,129.24598124468667L74.97215344355656,120.1972388879316L76.04318420703594,140.60550742972404L77.11421497051533,151.58916417751976L78.1852457339947,89.10313061930958L79.25627649747408,128.58054551471065L80.32730726095346,142.81356573749784L81.39833802443285,126.93232415960802L82.46936878791222,115.86542204518005L83.5403995513916,150.47933578973195L84.61143031487097,136.55441304800797L85.68246107835037,141.37407726259704L86.75349184182974,165.2272752626123L87.82452260530911,110.43218570379702L88.8955533687885,156.989186724743L89.96658413226788,133.2863075034549L91.03761489574725,135.43241944910528L92.10864565922664,154.93305516509616L93.17967642270601,137.1504820324828L94.25070718618541,152.96507196074324L95.32173794966478,164.2721677992855L96.39276871314415,98.3193522151077L97.46379947662354,140.32445546676237L98.53483024010292,155.40614085064044L99.60586100358229,145.55979295127665L100.67689176706168,134.54293558939818L101.74792253054105,145.53857302723011L102.81895329402043,148.8802102216314L103.88998405749982,143.35986675104118L104.96101482097919,169.85507709562037L106.03204558445857,132.88994304640434L107.10307634793796,113.70826519496384L108.17410711141733,135.90945915776382L109.24513787489671,150.0534479600949L110.31616863837608,111.65496735188222L111.38719940185547,126.71209825222073L112.45823016533485,136.0314803110699L113.52926092881422,125.35191430091496L114.6002916922936,134.97040502828094L115.671322455773,132.9798179917915L116.74235321925237,148.87956439785606L117.81338398273175,170.82648831425496L118.88441474621112,120.70228626031616L119.9554455096905,119.1525991612209L121.02647627316989,152.00586549345468L122.09750703664926,145.05268948687268L123.16853780012863,139.7660287823353L124.23956856360803,174.99253932797964L125.3105993270874,146.51024784740565L126.38163009056679,90.06859762319573L127.45266085404616,125.98570466589985L128.52369161752554,155.72351710594512L129.5947223810049,144.90645653203026L130.6657531444843,151.07784308846058L131.73678390796368,138.89909603445653L132.80781467144305,128.63641586131516L133.87884543492245,154.6053984496944L134.94987619840182,133.44142383022736L136.0209069618812,167.3567012307205L137.0919377253606,167.83787948357195L138.16296848883997,139.14825221096316L139.23399925231934,154.44134603068372L140.3050300157987,165.71609796015133L141.37606077927808,154.31079736752787L142.44709154275748,129.6896358181838L143.51812230623685,166.5338426604887L144.58915306971625,170.8401955943844L145.66018383319562,122.28029734498656L146.731214596675,158.8781421871189L147.80224536015436,149.2337789685086L148.87327612363376,148.03068835553242L149.94430688711313,173.68556334771478L151.0153376505925,143.7650882198677L152.08636841407187,143.7650091394054L153.15739917755127,155.49517227109655L154.22842994103067,165.82949934306833L155.29946070451004,158.0721409354309L156.3704914679894,157.86974767228892L157.44152223146878,168.59216211292542L158.51255299494815,166.54495346543976L159.58358375842752,160.96320401588508L160.65461452190692,178.4254419658966L161.72564528538632,146.46571236706203L162.7966760488657,166.918213247426L163.86770681234506,138.10394198617865L164.93873757582443,180.599297973732L166.00976833930383,194.29615925226395L167.0807991027832,150.83629181641038L168.15182986626257,116.46358666190545L169.22286062974194,157.33086704212334L170.29389139322134,163.62469651432528L171.36492215670074,135.8078407637273L172.4359529201801,149.12041712582274L173.50698368365948,151.21496861006315L174.57801444713886,116.97294391948455L175.64904521061823,134.94146157908455L176.7200759740976,163.67725866159086L177.791106737577,164.61259600934633L178.8621375010564,170.19186760441607L179.93316826453577,124.25844238874313L181.00419902801514,137.08115482721277L182.0752297914945,174.4365641378834L183.1462605549739,132.15386210345352L184.21729131845328,149.77223783620866L185.28832208193265,159.93684505603932L186.35935284541202,159.37617775851416L187.43038360889142,152.07350564886264L188.50141437237082,153.33887212588843L189.5724451358502,147.5958512535801L190.64347589932956,161.22836080592742L191.71450666280893,160.64142561484653L192.7855374262883,120.71347614572952L193.85656818976767,151.5921955952407L194.92759895324707,145.9539036151521L195.99862971672647,143.86744469821886L197.06966048020584,170.45940998840402L198.1406912436852,167.12402015052328L199.21172200716458,147.02611606304623L200.28275277064398,135.7733485020939L201.35378353412335,155.73603817914028L202.42481429760272,175.43429597038192L203.4958450610821,132.54256893573947L204.5668758245615,166.50342304266297L205.63790658804086,133.95954583904307L206.70893735152026,162.94494722067563L207.77996811499963,144.41300762744754L208.850998878479,170.23649534529903L209.92202964195837,137.55160449734754L210.99306040543775,165.50863036734606L212.06409116891714,128.19095561726252L213.13512193239652,166.5409994423255L214.20615269587591,144.3616712273474L215.27718345935529,164.0156703198634L216.34821422283466,158.19264637987652L217.41924498631403,160.45405763953875L218.49027574979343,130.82940934102362L219.5613065132728,163.21814385771697L220.63233727675217,166.80233401002405L221.70336804023154,135.21233852256552L222.77439880371094,173.87672718521225L223.84542956719034,161.86726504080676L224.9164603306697,167.65509817507672L225.98749109414908,119.5969654588786L227.05852185762845,166.7341666515342L228.12955262110782,132.3307255573544L229.2005833845872,167.3013317270438L230.2716141480666,163.72284854809828L231.342644911546,146.2654147361706L232.41367567502536,160.9986979633741L233.48470643850473,164.20048136022396L234.5557372019841,139.3443981175846L235.6267679654635,153.10339686935714L236.69779872894287,151.3335365831828L237.76882949242224,164.32509898870842L238.8398602559016,139.83805790340008L239.910891019381,153.8013346693324L240.9819217828604,155.9952243942801L242.05295254633978,165.85062700657554L243.12398330981915,138.05401585432259L244.19501407329852,143.7693058445229L245.2660448367779,184.13344337348963L246.33707560025726,161.46664341886984L247.40810636373666,139.49936946350954L248.47913712721606,163.4511939800715L249.55016789069543,150.39718436949465L250.6211986541748,165.61653565813424L251.69222941765418,171.4642327023541L252.76326018113357,140.4139877301463L253.83429094461295,177.5132554234751L254.90532170809232,169.19934190235134L255.9763524715717,167.7391607064859L257.0473832350511,157.106463050312L258.11841399853046,144.78609606843216L259.1894447620098,153.79225359624664L260.2604755254892,169.50150834874316L261.3315062889686,164.7074925640886" fill="none"></path></g></g></g></g></g></g><g transform="translate(51, 176)" clip-path="url(#clip_1)"><clipPath id="clip_1"><rect width="278" height="23"></rect></clipPath><g><g><line x1="0" y1="0" x2="0" y2="5" style="visibility: inherit;" fill="rgb(0, 0, 0)" stroke="rgb(204, 204, 204)" stroke-width="1px"></line><line x1="21.420615269587593" y1="0" x2="21.420615269587593" y2="5" style="visibility: inherit;" fill="rgb(0, 0, 0)" stroke="rgb(204, 204, 204)" stroke-width="1px"></line><line x1="42.841230539175186" y1="0" x2="42.841230539175186" y2="5" style="visibility: inherit;" fill="rgb(0, 0, 0)" stroke="rgb(204, 204, 204)" stroke-width="1px"></line><line x1="64.26184580876277" y1="0" x2="64.26184580876277" y2="5" style="visibility: inherit;" fill="rgb(0, 0, 0)" stroke="rgb(204, 204, 204)" stroke-width="1px"></line><line x1="85.68246107835037" y1="0" x2="85.68246107835037" y2="5" style="visibility: inherit;" fill="rgb(0, 0, 0)" stroke="rgb(204, 204, 204)" stroke-width="1px"></line><line x1="107.10307634793796" y1="0" x2="107.10307634793796" y2="5" style="visibility: inherit;" fill="rgb(0, 0, 0)" stroke="rgb(204, 204, 204)" stroke-width="1px"></line><line x1="128.52369161752554" y1="0" x2="128.52369161752554" y2="5" style="visibility: inherit;" fill="rgb(0, 0, 0)" stroke="rgb(204, 204, 204)" stroke-width="1px"></line><line x1="149.94430688711313" y1="0" x2="149.94430688711313" y2="5" style="visibility: inherit;" fill="rgb(0, 0, 0)" stroke="rgb(204, 204, 204)" stroke-width="1px"></line><line x1="171.36492215670074" y1="0" x2="171.36492215670074" y2="5" style="visibility: inherit;" fill="rgb(0, 0, 0)" stroke="rgb(204, 204, 204)" stroke-width="1px"></line><line x1="192.7855374262883" y1="0" x2="192.7855374262883" y2="5" style="visibility: inherit;" fill="rgb(0, 0, 0)" stroke="rgb(204, 204, 204)" stroke-width="1px"></line><line x1="214.20615269587591" y1="0" x2="214.20615269587591" y2="5" style="visibility: inherit;" fill="rgb(0, 0, 0)" stroke="rgb(204, 204, 204)" stroke-width="1px"></line><line x1="235.6267679654635" y1="0" x2="235.6267679654635" y2="5" style="visibility: inherit;" fill="rgb(0, 0, 0)" stroke="rgb(204, 204, 204)" stroke-width="1px"></line><line x1="257.0473832350511" y1="0" x2="257.0473832350511" y2="5" style="visibility: inherit;" fill="rgb(0, 0, 0)" stroke="rgb(204, 204, 204)" stroke-width="1px"></line><line x1="278.4679985046387" y1="0" x2="278.4679985046387" y2="5" style="visibility: inherit;" fill="rgb(0, 0, 0)" stroke="rgb(204, 204, 204)" stroke-width="1px"></line></g><g transform="translate(0, 8)"><text style="text-anchor: middle; visibility: hidden; font-family: Roboto, sans-serif; font-size: 12px; font-weight: 200;" x="0" y="0" dx="0em" dy="0.95em" fill="rgb(255, 255, 255)" stroke="none" stroke-width="1px">-20</text><text style="text-anchor: middle; visibility: inherit; font-family: Roboto, sans-serif; font-size: 12px; font-weight: 200;" x="21.420615269587593" y="0" dx="0em" dy="0.95em" fill="rgb(255, 255, 255)" stroke="none" stroke-width="1px">0</text><text style="text-anchor: middle; visibility: hidden; font-family: Roboto, sans-serif; font-size: 12px; font-weight: 200;" x="42.841230539175186" y="0" dx="0em" dy="0.95em" fill="rgb(255, 255, 255)" stroke="none" stroke-width="1px">20</text><text style="text-anchor: middle; visibility: inherit; font-family: Roboto, sans-serif; font-size: 12px; font-weight: 200;" x="64.26184580876277" y="0" dx="0em" dy="0.95em" fill="rgb(255, 255, 255)" stroke="none" stroke-width="1px">40</text><text style="text-anchor: middle; visibility: hidden; font-family: Roboto, sans-serif; font-size: 12px; font-weight: 200;" x="85.68246107835037" y="0" dx="0em" dy="0.95em" fill="rgb(255, 255, 255)" stroke="none" stroke-width="1px">60</text><text style="text-anchor: middle; visibility: inherit; font-family: Roboto, sans-serif; font-size: 12px; font-weight: 200;" x="107.10307634793796" y="0" dx="0em" dy="0.95em" fill="rgb(255, 255, 255)" stroke="none" stroke-width="1px">80</text><text style="text-anchor: middle; visibility: hidden; font-family: Roboto, sans-serif; font-size: 12px; font-weight: 200;" x="128.52369161752554" y="0" dx="0em" dy="0.95em" fill="rgb(255, 255, 255)" stroke="none" stroke-width="1px">100</text><text style="text-anchor: middle; visibility: inherit; font-family: Roboto, sans-serif; font-size: 12px; font-weight: 200;" x="149.94430688711313" y="0" dx="0em" dy="0.95em" fill="rgb(255, 255, 255)" stroke="none" stroke-width="1px">120</text><text style="text-anchor: middle; visibility: hidden; font-family: Roboto, sans-serif; font-size: 12px; font-weight: 200;" x="171.36492215670074" y="0" dx="0em" dy="0.95em" fill="rgb(255, 255, 255)" stroke="none" stroke-width="1px">140</text><text style="text-anchor: middle; visibility: inherit; font-family: Roboto, sans-serif; font-size: 12px; font-weight: 200;" x="192.7855374262883" y="0" dx="0em" dy="0.95em" fill="rgb(255, 255, 255)" stroke="none" stroke-width="1px">160</text><text style="text-anchor: middle; visibility: hidden; font-family: Roboto, sans-serif; font-size: 12px; font-weight: 200;" x="214.20615269587591" y="0" dx="0em" dy="0.95em" fill="rgb(255, 255, 255)" stroke="none" stroke-width="1px">180</text><text style="text-anchor: middle; visibility: inherit; font-family: Roboto, sans-serif; font-size: 12px; font-weight: 200;" x="235.6267679654635" y="0" dx="0em" dy="0.95em" fill="rgb(255, 255, 255)" stroke="none" stroke-width="1px">200</text><text style="text-anchor: middle; visibility: hidden; font-family: Roboto, sans-serif; font-size: 12px; font-weight: 200;" x="257.0473832350511" y="0" dx="0em" dy="0.95em" fill="rgb(255, 255, 255)" stroke="none" stroke-width="1px">220</text><text style="text-anchor: middle; visibility: hidden; font-family: Roboto, sans-serif; font-size: 12px; font-weight: 200;" x="278.4679985046387" y="0" dx="0em" dy="0.95em" fill="rgb(255, 255, 255)" stroke="none" stroke-width="1px">240</text></g><line x1="0" y1="0" x2="278.4679985046387" y2="0" fill="rgb(0, 0, 0)" stroke="rgb(204, 204, 204)" stroke-width="1px"></line></g></g></g></g></svg>